<svg version="1.2" xmlns="http://www.w3.org/2000/svg" viewBox="0 0 144 144" width="144" height="144">
	<style>
		.s0 { fill: #29abe2 } 
		.s1 { fill: #0e2229 } 
		.s2 { fill: #a5a5a5 } 
		.s3 { fill: #ffffff } 
		.s4 { opacity: .35;fill: #000000 } 
		.s5 { opacity: .15;fill: #000000 } 
		.s6 { fill: #4a6166 } 
		.s7 { fill: #061316 } 
		.s8 { fill: #290607 } 
		.s9 { fill: #a29479 } 
		.s10 { fill: #000711 } 
		.s11 { fill: #63573f } 
		.s12 { fill: #3f57a6 } 
		.s13 { fill: #7d7056 } 
		.s14 { fill: #132b78 } 
		.s15 { fill: #34494c } 
		.s16 { fill: #07174a } 
		.s17 { fill: #e6e8e8 } 
	</style>
	<g id="&lt;Group&gt;">
		<path id="&lt;Path&gt;" class="s0" d="m72 11.66c-17.46 0-35.02 2.33-51.78 7.24l-1.82 0.53v41.93c0 9.18 0.69 18.42 3.09 27.31 6.86 25.44 26.04 39.88 49.55 49.53l0.96 0.39 0.96-0.39c23.51-9.65 42.69-24.09 49.55-49.53 2.4-8.89 3.09-18.13 3.09-27.31v-41.93l-1.82-0.53c-16.76-4.91-34.33-7.24-51.78-7.24z"/>
		<path id="&lt;Path&gt;" fill-rule="evenodd" class="s0" d="m57.97 28.15c-6.62 0-11.97-4.95-11.97-11.07 0-6.13 5.35-11.08 11.97-11.08 6.62 0 11.97 4.95 11.97 11.08 0 6.12-5.35 11.07-11.97 11.07z"/>
		<path id="&lt;Path&gt;" class="s1" d="m20.93 21.33v40.03c0 29.4 7.21 56.48 51.07 74.5 43.86-18.02 51.07-45.1 51.07-74.5v-40.03c-15.64-4.59-32.91-7.13-51.07-7.13-18.16 0-35.43 2.54-51.07 7.13z"/>
		<path id="&lt;Path&gt;" class="s2" d="m72 130.32c7.88-3.4 15.11-7.53 21.08-12.87-6 3.25-13.44 6.37-21.08 8.19z"/>
		<path id="&lt;Path&gt;" class="s3" d="m50.92 117.45c0 0 7.42 5.81 21.08 10.22 13.66-4.41 21.08-10.22 21.08-10.22-6 3.25-13.44 6.37-21.08 8.19-7.64-1.82-15.08-4.94-21.08-8.19z"/>
		<path id="&lt;Path&gt;" class="s0" d="m116.5 26.33c-14.5-3.77-29.55-5.56-44.5-5.56-14.95 0-30 1.79-44.5 5.56v35.03c0 4.91 0.04 20.77 3.34 25.56-1.07 2.07-5.44-3.03-3 4.36 1.14 3.46 3.31 4.19 5.5 3.6q2.2 4.85 5.16 9.01c24.05-4.24 52.24-9.2 73.76-12.97q0.81-2.24 1.46-4.63c1.1-4.07 1.8-8.25 2.22-12.46 2.34-3.05 3.74-6.86 3.74-11.01 0-3.8-1.18-7.32-3.18-10.23z"/>
		<path id="&lt;Path&gt;" class="s3" d="m116.5 26.33c-14.5-3.77-29.55-5.56-44.5-5.56-13.28 0-26.63 1.41-39.6 4.37 12.25-2.57 52.02-8.04 67.81 14.36-3.46-1.72-8.21-2.9-12.31-3.35 10.88 5 24.7 23.45 24.34 47.35-0.36 23.9 0.39 3.62 0.83 5.02q0.34-1.1 0.65-2.23c1.1-4.07 1.8-8.25 2.22-12.46 2.34-3.05 3.74-6.86 3.74-11.01 0-3.8-1.18-7.32-3.18-10.23z"/>
		<path id="&lt;Path&gt;" class="s1" d="m61.49 80.77l-0.44 0.14q0.09 0.88 0.1 1.76l2.34-0.85c-0.98-0.03-1.68-0.18-1.68-0.18z"/>
		<path id="&lt;Path&gt;" class="s0" d="m140.57 64.32c-1.88-1.72-4.26-2.54-6.78-2.62-2.32-0.09-4.86 0.49-7.13 1.01l-50.99 11.57q-1.95 0.02-3.85 0.46c-2.06 0.47-4.03 1.26-5.78 2.46q-0.46 0.32-0.9 0.67-1.1-0.23-2.24-0.23c-2.21 0.02-4.54 0.57-6.69 1.06l-41.82 9.49v0.18c-1.13 0.12-2.26 0.34-3.36 0.59l-11.03 2.5v35.63l15.13-3.44q0.12-0.03 0.24-0.05l25.37-5.76-3.25-4.66c0 0 80.07-17.68 79.76-17.8-0.2-0.08-1.11 3.23-1.71 5.48l17.11-3.88c1.45-0.33 2.9-0.72 4.25-1.33 1.46-0.65 2.78-1.55 3.89-2.71 1.32-1.37 2.23-3.05 2.71-4.89 0.47-1.79 0.5-3.77 0.5-5.62v-7.22c0-1.72 0.01-3.51-0.3-5.21-0.4-2.2-1.49-4.16-3.13-5.68z"/>
		<path id="&lt;Path&gt;" class="s1" d="m138.63 66.43c-1.36-1.26-3.11-1.81-4.94-1.88-1.96-0.07-4.49 0.51-6.39 0.94l-7.49 1.7-42.72 9.7v0.34c-1.54-0.2-3.12-0.05-4.64 0.3-1.71 0.38-3.34 1.03-4.79 2.02q-0.98 0.68-1.79 1.53-1.37-0.59-2.94-0.58c-1.89 0.02-4.24 0.57-6.09 0.99l-39.59 8.98v0.74q-0.21-0.02-0.43-0.04c-1.68-0.13-3.52 0.2-5.15 0.57l-8.81 2v29.77l11.64-2.64c0.84-0.2 1.81-0.42 2.75-0.71v0.08l53.21-12.08v-0.3c1.48 0.2 2.98 0.07 4.44-0.26q1.78-0.4 3.39-1.22l53.73-12.19c1.23-0.28 2.55-0.62 3.71-1.14q1.7-0.75 3-2.09c0.98-1.02 1.65-2.26 2.01-3.63 0.38-1.48 0.4-3.37 0.4-4.9v-7.22c0-1.47 0.02-3.25-0.25-4.69-0.29-1.59-1.07-3-2.26-4.09z"/>
		<g id="&lt;Group&gt;">
			<g id="&lt;Group&gt;">
				<path id="&lt;Path&gt;" class="s0" d="m10.09 118.66l6.32-1.5 0.07-7.59 6.92-1.64 0.06-6.07-6.93 1.65 0.02-2.26 7.98-1.89 0.05-6.08-14.3 3.4z"/>
				<path id="&lt;Path&gt;" class="s0" d="m36.98 103.81c-0.01 1.53-0.32 2.22-0.5 2.49-0.09 0.15-0.38 0.59-1.42 0.84-1.07 0.25-1.36-0.06-1.45-0.16-0.18-0.19-0.47-0.74-0.46-2.26l0.12-13.5-6.28 1.49-0.11 12.88c-0.02 1.77 0.13 3.13 0.43 4.15q0.48 1.61 1.61 2.56 1.15 0.95 2.7 1.2 1.53 0.25 3.41-0.2 1.88-0.45 3.41-1.42 1.56-0.99 2.74-2.49 1.14-1.48 1.64-3.31c0.31-1.17 0.47-2.6 0.49-4.39l0.11-12.88-6.32 1.5z"/>
				<path id="&lt;Path&gt;" class="s0" d="m56.45 85.72l-0.06 6.09q-0.01 1.25 0.01 2.81-0.41-0.78-0.84-1.57l-3.46-6.3-6.34 1.51-0.2 21.98 6.21-1.47 0.06-7q0.01-0.83-0.01-1.79 0.37 0.69 0.71 1.3l3.58 6.46 6.34-1.5 0.19-21.99z"/>
			</g>
			<g id="&lt;Group&gt;">
				<path id="&lt;Compound Path&gt;" fill-rule="evenodd" class="s3" d="m79.22 82.22q1.82 1.46 1.79 4.89-0.03 3.56-1.84 5.97-1.85 2.46-5.18 3.26l-2.62 0.62-0.07 7.17-6.37 1.52 0.2-21.99 8.85-2.1q3.4-0.81 5.24 0.66zm-5.85 8.32c0.36-0.08 0.83-0.24 1.06-0.54q0.3-0.39 0.31-1.25c0.01-0.37-0.04-0.86-0.3-1.06q-0.3-0.23-1.09-0.04l-1.91 0.45-0.02 2.91z"/>
				<path id="&lt;Path&gt;" class="s3" d="m89.72 77.82l-6.43 1.53-0.2 21.99 13.45-3.2 0.05-6.25-7.01 1.67z"/>
				<path id="&lt;Path&gt;" class="s3" d="m105.17 87.71l8.06-1.91 0.05-5.93-8.05 1.92 0.01-1.64 8.81-2.1 0.06-6.02-15.23 3.62-0.2 21.99 15.52-3.69 0.05-6.01-9.1 2.16z"/>
				<path id="&lt;Path&gt;" class="s3" d="m127.96 79.45l6-12.13-7.34 1.74-2.11 4.65-2.04-3.66-7.33 1.74 5.76 9.34-6.27 12.72 7.35-1.75 2.41-5.21 2.3 4.1 7.4-1.76z"/>
			</g>
			<path id="&lt;Path&gt;" class="s4" d="m11.15 107.61l-0.09 9.87 4.39-1.04 0.07-7.59 6.92-1.65 0.02-2.28z"/>
			<path id="&lt;Path&gt;" class="s4" d="m37.97 101.24l-0.02 2.34q-0.02 2.07-0.69 3.11-0.68 1.03-2.21 1.4-1.56 0.37-2.22-0.35-0.67-0.72-0.65-2.79l0.02-2.34-4.34 1.03-0.01 1.72q-0.02 2.5 0.4 3.9 0.42 1.4 1.39 2.22 1.01 0.84 2.35 1.05 1.35 0.22 3.05-0.18 1.69-0.4 3.05-1.26 1.35-0.86 2.38-2.18 0.98-1.27 1.41-2.87 0.44-1.6 0.46-4.12l0.02-1.72z"/>
			<g id="&lt;Group&gt;">
				<path id="&lt;Path&gt;" class="s4" d="m50.8 98.2l-4.17 0.99-0.09 9.87 4.27-1.01 0.05-6.05q0.01-1.31-0.03-2.99-0.01-0.4-0.03-0.81z"/>
				<path id="&lt;Path&gt;" class="s4" d="m57.41 96.63q0.03 1.29 0.07 2.68-0.54-1.21-1.14-2.43l-4.39 1.04q0.09 0.18 0.18 0.35 0.69 1.33 1.28 2.39l3.32 5.98 4.76-1.13 0.08-9.87z"/>
			</g>
			<g id="&lt;Group&gt;">
				<path id="&lt;Path&gt;" class="s4" d="m66 94.59l-0.09 9.87 4.43-1.05 0.06-7.17 3.6-0.85q2.9-0.69 4.46-2.77 0.4-0.54 0.7-1.15z"/>
			</g>
			<path id="&lt;Path&gt;" class="s4" d="m88.65 89.21l-4.49 1.07-0.09 9.87 11.51-2.73 0.03-4.35-7.01 1.67z"/>
			<path id="&lt;Path&gt;" class="s4" d="m104.21 86.99l8.06-1.91 0.01-1.47-12.53 2.97-0.09 9.87 13.58-3.22 0.03-4.1-9.1 2.16z"/>
			<path id="&lt;Path&gt;" class="s4" d="m121.75 81.36l-5.49 11.15 5.13-1.22 3.03-6.54 2.88 5.14 5.16-1.22-5.37-8.58z"/>
		</g>
		<g id="&lt;Group&gt;">
			<path id="&lt;Compound Path&gt;" class="s3" d="m45.44 114l0.75-0.18 0.54 2.44 0.97-2.79 0.75-0.18-0.27 3.26-0.49 0.12 0.22-2.7-0.99 2.88-0.5 0.12-0.54-2.52-0.22 2.7-0.48 0.11z"/>
			<path id="&lt;Compound Path&gt;" fill-rule="evenodd" class="s3" d="m50.38 112.75q0.7-0.16 1.06 0.2 0.36 0.37 0.29 1.17-0.06 0.8-0.5 1.35-0.43 0.56-1.12 0.72-0.7 0.16-1.06-0.2-0.36-0.37-0.3-1.17 0.07-0.8 0.5-1.35 0.44-0.56 1.13-0.72zm-0.03 0.47q-0.46 0.11-0.74 0.5-0.28 0.39-0.33 0.98-0.05 0.58 0.18 0.85 0.23 0.27 0.68 0.17 0.46-0.11 0.74-0.5 0.28-0.39 0.33-0.98 0.05-0.59-0.18-0.86-0.23-0.27-0.68-0.16z"/>
			<path id="&lt;Compound Path&gt;" class="s3" d="m52.01 112.45l2.43-0.58-0.04 0.48-0.95 0.23-0.23 2.78-0.51 0.13 0.22-2.79-0.96 0.23z"/>
			<path id="&lt;Compound Path&gt;" fill-rule="evenodd" class="s3" d="m56.09 111.4q0.69-0.16 1.06 0.2 0.36 0.37 0.29 1.17-0.06 0.8-0.5 1.35-0.44 0.56-1.13 0.72-0.69 0.17-1.05-0.2-0.36-0.36-0.3-1.17 0.07-0.8 0.5-1.35 0.44-0.55 1.13-0.72zm-0.04 0.47q-0.45 0.11-0.73 0.5-0.28 0.39-0.33 0.98-0.05 0.59 0.18 0.86 0.23 0.27 0.68 0.16 0.45-0.11 0.73-0.5 0.29-0.39 0.33-0.98 0.05-0.59-0.18-0.85-0.22-0.27-0.68-0.17z"/>
			<path id="&lt;Compound Path&gt;" fill-rule="evenodd" class="s3" d="m58.01 111.03l1.34-0.32q0.06-0.01 0.14-0.02 0.02-0.01 0.02-0.01 0.41-0.1 0.63 0.09 0.21 0.19 0.18 0.61-0.02 0.28-0.16 0.5-0.13 0.23-0.35 0.36 0.19 0.02 0.26 0.14 0.07 0.12 0.06 0.43l-0.01 0.46v0.01q-0.01 0.3 0.1 0.34l-0.01 0.09-0.58 0.14q-0.03-0.06-0.04-0.14-0.01-0.08 0-0.27l0.01-0.39q0.01-0.31-0.09-0.39-0.1-0.07-0.36-0.01l-0.78 0.18-0.11 1.34-0.51 0.13zm0.47 0.33l-0.08 1.01 0.74-0.18q0.32-0.07 0.47-0.23 0.15-0.15 0.18-0.42 0.02-0.26-0.11-0.34-0.13-0.09-0.45-0.01z"/>
			<path id="&lt;Compound Path&gt;" class="s3" d="m63.03 110.78l-0.49 0.12q0.01-0.28-0.16-0.39-0.17-0.11-0.48-0.04-0.25 0.06-0.42 0.22-0.17 0.16-0.19 0.35-0.01 0.18 0.12 0.27 0.13 0.08 0.57 0.1 0.67 0.02 0.87 0.18 0.19 0.16 0.16 0.55-0.04 0.46-0.39 0.81-0.35 0.36-0.9 0.49-0.58 0.14-0.88-0.08-0.29-0.21-0.27-0.76l0.5-0.12q-0.01 0.32 0.19 0.44 0.19 0.13 0.54 0.04 0.27-0.06 0.45-0.23 0.18-0.18 0.19-0.38 0.01-0.07-0.03-0.16-0.04-0.09-0.11-0.14-0.11-0.09-0.52-0.1-0.09 0-0.14 0-0.51-0.02-0.7-0.2-0.2-0.17-0.17-0.55 0.03-0.41 0.37-0.74 0.33-0.33 0.86-0.45 0.51-0.12 0.79 0.09 0.28 0.2 0.24 0.68z"/>
			<path id="&lt;Compound Path&gt;" fill-rule="evenodd" class="s3" d="m63.63 109.7l1.19-0.28q0.28-0.06 0.42-0.07 0.14 0 0.24 0.03 0.2 0.07 0.29 0.27 0.1 0.2 0.07 0.52-0.02 0.26-0.13 0.48-0.1 0.23-0.29 0.4-0.12 0.12-0.29 0.2-0.16 0.08-0.44 0.14l-0.7 0.17-0.11 1.29-0.51 0.12zm0.48 0.35l-0.09 1.03 0.67-0.16q0.32-0.07 0.46-0.23 0.15-0.15 0.17-0.42 0.02-0.27-0.1-0.36-0.13-0.1-0.41-0.03z"/>
			<path id="&lt;Compound Path&gt;" fill-rule="evenodd" class="s3" d="m67.7 108.66q0.69-0.16 1.06 0.2 0.36 0.37 0.29 1.17-0.06 0.8-0.5 1.35-0.44 0.56-1.13 0.72-0.69 0.16-1.05-0.2-0.36-0.37-0.3-1.17 0.07-0.8 0.5-1.35 0.44-0.56 1.13-0.72zm-0.04 0.47q-0.45 0.11-0.73 0.5-0.28 0.39-0.33 0.98-0.05 0.58 0.18 0.86 0.23 0.26 0.68 0.16 0.45-0.11 0.73-0.5 0.29-0.39 0.33-0.98 0.05-0.59-0.18-0.86-0.22-0.27-0.68-0.16z"/>
			<path id="&lt;Compound Path&gt;" fill-rule="evenodd" class="s3" d="m69.62 108.29l1.34-0.32q0.06-0.01 0.14-0.03 0.02 0 0.02 0 0.41-0.1 0.63 0.09 0.21 0.19 0.18 0.61-0.03 0.28-0.16 0.5-0.13 0.23-0.35 0.36 0.19 0.02 0.26 0.14 0.07 0.12 0.06 0.43l-0.01 0.46q0 0 0 0-0.01 0.31 0.1 0.35l-0.01 0.09-0.58 0.14q-0.03-0.06-0.04-0.14-0.01-0.08 0-0.27l0.01-0.39q0.01-0.31-0.09-0.39-0.1-0.08-0.36-0.02l-0.78 0.19-0.11 1.34-0.51 0.12zm0.47 0.34l-0.08 1.01 0.74-0.18q0.32-0.08 0.47-0.23 0.15-0.15 0.18-0.42 0.02-0.26-0.11-0.35-0.13-0.08-0.45-0.01z"/>
			<path id="&lt;Compound Path&gt;" class="s3" d="m72.21 107.68l2.43-0.58-0.04 0.48-0.96 0.23-0.22 2.78-0.52 0.13 0.23-2.79-0.96 0.23z"/>
			<path id="&lt;Compound Path&gt;" class="s3" d="m77.07 107.47l-0.5 0.11q0.01-0.27-0.16-0.38-0.17-0.12-0.48-0.05-0.25 0.06-0.42 0.23-0.17 0.16-0.18 0.34-0.02 0.19 0.11 0.27 0.13 0.09 0.58 0.1 0.67 0.02 0.86 0.19 0.19 0.16 0.16 0.54-0.04 0.46-0.39 0.82-0.35 0.36-0.9 0.49-0.57 0.13-0.87-0.08-0.3-0.22-0.28-0.76l0.5-0.12q0 0.31 0.19 0.44 0.19 0.12 0.54 0.04 0.27-0.06 0.45-0.24 0.18-0.17 0.2-0.37 0-0.08-0.04-0.17-0.04-0.08-0.1-0.14-0.12-0.08-0.53-0.09-0.09-0.01-0.13-0.01-0.51-0.02-0.71-0.19-0.2-0.17-0.17-0.56 0.04-0.4 0.37-0.73 0.34-0.33 0.86-0.46 0.51-0.12 0.79 0.09 0.28 0.21 0.25 0.69z"/>
			<g id="&lt;Group&gt;">
				<path id="&lt;Compound Path&gt;" class="s0" d="m78.78 106.13l0.51-0.13-0.12 1.48 1.5-1.8 0.66-0.16-1.36 1.61 1.17 1.64-0.64 0.15-0.93-1.33-0.45 0.54-0.09 1.14-0.51 0.12z"/>
				<path id="&lt;Compound Path&gt;" fill-rule="evenodd" class="s0" d="m82.37 105.28l0.58-0.14 0.88 3-0.55 0.13-0.21-0.78-1.21 0.28-0.34 0.91-0.54 0.13zm0.24 0.48l-0.57 1.53 0.92-0.22z"/>
				<path id="&lt;Compound Path&gt;" fill-rule="evenodd" class="s0" d="m84.33 104.81l1.34-0.31q0.06-0.02 0.13-0.03 0.03 0 0.03 0 0.41-0.1 0.63 0.09 0.21 0.18 0.18 0.61-0.03 0.27-0.16 0.5-0.13 0.22-0.35 0.36 0.18 0.02 0.26 0.14 0.07 0.12 0.06 0.43l-0.01 0.46q0 0 0 0-0.02 0.3 0.1 0.34l-0.01 0.1-0.58 0.13q-0.03-0.05-0.04-0.13-0.01-0.09 0-0.28l0.01-0.38q0.01-0.31-0.09-0.39-0.1-0.08-0.36-0.02l-0.78 0.19-0.11 1.34-0.51 0.12zm0.47 0.34l-0.09 1 0.75-0.17q0.32-0.08 0.47-0.23 0.15-0.16 0.17-0.42 0.03-0.26-0.1-0.35-0.13-0.09-0.45-0.01z"/>
				<path id="&lt;Compound Path&gt;" class="s0" d="m86.92 104.2l2.43-0.57-0.04 0.48-0.96 0.22-0.22 2.79-0.52 0.12 0.23-2.78-0.96 0.22z"/>
				<path id="&lt;Compound Path&gt;" class="s0" d="m89.65 103.56l0.51-0.12-0.26 3.26-0.52 0.12z"/>
				<path id="&lt;Compound Path&gt;" class="s0" d="m90.75 103.3l0.55-0.13 1.25 2.1 0.2-2.44 0.5-0.12-0.27 3.26-0.54 0.13-1.26-2.1-0.2 2.45-0.49 0.11z"/>
				<path id="&lt;Compound Path&gt;" class="s0" d="m96.42 102.94l-0.52 0.12q-0.03-0.27-0.23-0.39-0.19-0.11-0.5-0.04-0.47 0.11-0.75 0.5-0.29 0.38-0.34 0.97-0.04 0.58 0.19 0.85 0.23 0.27 0.68 0.17 0.38-0.09 0.64-0.4 0.26-0.3 0.31-0.72l-0.85 0.2 0.03-0.45 1.33-0.31-0.14 1.76-0.34 0.08-0.06-0.39q-0.19 0.28-0.45 0.47-0.25 0.18-0.56 0.26-0.65 0.15-1.01-0.23-0.36-0.38-0.3-1.15 0.07-0.78 0.51-1.35 0.44-0.56 1.11-0.72 0.56-0.13 0.89 0.07 0.33 0.2 0.36 0.7z"/>
				<path id="&lt;Compound Path&gt;" fill-rule="evenodd" class="s3" d="m98.97 101.36l0.59-0.14 0.87 2.99-0.55 0.13-0.21-0.77-1.21 0.28-0.34 0.91-0.54 0.13zm0.24 0.48l-0.57 1.52 0.92-0.21z"/>
				<path id="&lt;Compound Path&gt;" fill-rule="evenodd" class="s3" d="m100.93 100.89l1.34-0.31q0.06-0.02 0.14-0.03 0.02 0 0.02-0.01 0.42-0.09 0.63 0.09 0.21 0.19 0.18 0.61-0.02 0.28-0.16 0.51-0.13 0.22-0.35 0.36 0.19 0.02 0.26 0.14 0.07 0.11 0.06 0.42l-0.01 0.47q0 0 0 0-0.01 0.3 0.1 0.34l-0.01 0.1-0.58 0.13q-0.03-0.05-0.04-0.14-0.01-0.08 0-0.27l0.01-0.38q0.01-0.32-0.09-0.39-0.1-0.08-0.36-0.02l-0.78 0.18-0.11 1.35-0.51 0.12zm0.47 0.34l-0.08 1 0.74-0.17q0.32-0.08 0.47-0.23 0.16-0.16 0.18-0.43 0.02-0.26-0.11-0.34-0.13-0.09-0.45-0.01z"/>
				<path id="&lt;Compound Path&gt;" class="s3" d="m103.81 100.21l2.23-0.52-0.04 0.48-1.72 0.4-0.07 0.86 1.59-0.38-0.04 0.46-1.59 0.37-0.08 0.99 1.78-0.42-0.04 0.49-2.28 0.54z"/>
				<path id="&lt;Compound Path&gt;" class="s3" d="m106.51 99.58l0.55-0.13 1.25 2.1 0.2-2.45 0.5-0.11-0.27 3.26-0.54 0.13-1.26-2.1-0.2 2.44-0.49 0.12z"/>
				<path id="&lt;Compound Path&gt;" fill-rule="evenodd" class="s3" d="m110.38 98.66l0.58-0.14 0.88 3-0.55 0.13-0.21-0.78-1.21 0.29-0.35 0.91-0.53 0.12zm0.24 0.49l-0.58 1.52 0.93-0.22z"/>
			</g>
		</g>
		<g id="&lt;Group&gt;">
			<path id="&lt;Compound Path&gt;" fill-rule="evenodd" class="s5" d="m120.65 57.86l-4.18 0.88c-1.06 0.22-2.12 0.1-3.12-0.29l-4.54 0.95-6.5 1.36-5.06 1.05-8.46 1.76-0.76 0.16-0.21 0.05-3.17 0.66c-0.76 0.75-1.68 1.28-2.72 1.5l-4.72 0.98c-1.04 0.22-2.1 0.1-3.09-0.29l-4.53 0.95-20.99 4.37q-0.23 0.05-0.46 0.05c-0.78 0.79-1.74 1.34-2.84 1.57l-5.82 1.21c-3.61 0.76-7.37-2.36-8.33-7-0.97-4.63 1.23-8.99 4.84-9.74l4.35-0.91c0.45-1.58 1.53-2.8 2.97-3.1l6.28-1.31-5.82-11.49q-0.12 0.01-0.24 0.03c-0.47 0.1-0.89-0.21-0.98-0.68-0.09-0.42 0.17-0.88 0.64-0.97l1.53-0.32-0.3-1.41c-0.29-1.4 0.41-2.92 1.9-3.23l3.02-0.63q0.1-1.07 0.3-2.24 0.01-0.08 0.03-0.16 0.04-0.24 0.09-0.48 0.03-0.18 0.09-0.35 0.07-0.3 0.16-0.59c0.47-1.56 3.62-3.68 5.21-4.54l0.66-1.37-2.58-0.85q-0.01-0.01-0.01-0.03l-0.52-0.17c-0.24-0.08-0.39-0.36-0.32-0.64 0.07-0.25 0.3-0.39 0.55-0.34-2.75-12.65 12.06-15.79 16.85-6.57q0.22 0.41 0.41 0.86h0.35c1.36 2.47 1.68 5.68 0.99 8.35l-0.7-0.23q-0.13 0.63-0.29 1.19h-0.01c-0.23 0.78-0.49 1.45-0.75 1.95l0.06 0.02c0.28 0.07 0.42 0.35 0.35 0.63-0.07 0.29-0.41 0.4-0.64 0.32l-0.36-0.12q-0.01 0.01-0.02 0.02l-4.53-1.49 0.34 0.72c3.25 4.57 5.58 7.35 7.47 8.75 0.23-0.32 0.59-0.51 1.17-0.44q0 0 0 0.02 0.17-0.17 0.34-0.32c0.18-0.16 0.71-0.07 1.31 0.13q0.74-0.72 1.58-1.35c1.29-0.91 2.73-1.69 4.1-2.1 0.52-0.66 1.32-1.16 2.02-1.3l8.84-1.84c1.83-0.39 3.53 0.55 4.51 1.41q1.9 1.74 3.57 3.55h0.01q0.08 0.09 0.16 0.18c3.08 3.33 5.7 6.79 8.57 10.24h-0.01q0.01 0.01 0.02 0.01 0 0 0.01-0.01-0.01 0-0.02 0 0.52-0.95 1.08-1.56 0.01-0.01 0.01-0.02 0.11-0.12 0.22-0.23c1.96-2.03 3.94-1.35 3.97-1.34q0.5-0.17 0.69 0.35l3.07-0.64c0.98-0.2 1.97-0.11 2.91 0.22zm-45.75-14.17q-0.78-0.2-1.32-0.69-0.03-0.01-0.07-0.01-0.94-0.21-1.87-0.63 0.17 0.73 0.22 1.46-0.85 0.31-1.72 0.6 0.28 0.53 0.57 1.04 0.82-0.03 1.67 0.01 1.22-0.93 2.52-1.78zm5.95-8.44q-0.05-0.07-0.09-0.14c-0.85 0.35-1.7 0.84-2.48 1.43q-0.43 0.3-0.83 0.64 0 0.01 0.01 0.02l0.11-0.03q1.42-0.65 3.28-1.92zm8.25 14.2l-1.63-1.74q-1.32 0.32-2.63 0.85 1.57 0.57 3.05 1.14zm4.1-0.86c-1.38-0.49-2.62-0.87-3.56-1.03l1.4 1.49zm-8.42-9.48q0-0.01 0-0.01 0.01 0 0.01 0-0.01 0-0.01 0.01z"/>
			<g id="&lt;Group&gt;">
				<path id="&lt;Path&gt;" class="s1" d="m72.32 53.32c3.48-3.08 8.21-6.11 12.75-6.92 2.6-0.45 13.17 4.71 16.67 5.97l3.01-8.52c-6.41-2.25-14.72-7.44-21.22-6.3-6.25 1.08-12.39 4.79-17.15 8.98z"/>
				<path id="&lt;Path&gt;" class="s6" d="m79.79 32.56c-3.98 2.83-6.52 4.46-8.52 4.04-2.28-0.5-5.01-3.39-9.58-9.8l-4.39 3.18c5.43 7.55 9 11.07 12.86 11.9 4.13 0.92 7.55-1.21 12.76-4.92z"/>
				<path id="&lt;Path&gt;" class="s7" d="m81.4 49.25l9.31-1.94c2.42-0.5 2.9 1.79 5.07 1.34l5.43-1.14c1.45-0.3 2.48 0.82 3.2 2.13l3.16 5.42c0.76 1.3-0.63 2.92-2.11 3.23l-20.99 4.38c-0.77 0.16-1.48-0.05-2.09-0.41-0.67-0.48-0.86-1.37-0.7-2.12 0.4-1.68 0.42-3.5 0.07-5.16-0.23-1.14-0.65-2.3-1.23-3.37-0.71-1.27-0.26-2.12 0.88-2.36z"/>
				<path id="&lt;Path&gt;" class="s8" d="m66.85 56.41l-10.4-20.54c2.8-0.58 6.12 1.12 7.62 4.05l2.2 4.37c0.81 1.56 2.88 2.1 4.41 1.79 1.78-0.38 3.92 0.73 4.89 2.61l2.79 5.32z"/>
				<path id="&lt;Path&gt;" class="s7" d="m114.38 40.29c3.57-0.74 7.23 2.35 8.17 6.86 0.94 4.5-1.19 8.76-4.76 9.5l-4.67 0.97c-0.81-3.91-2.4-11.51-3.41-16.36z"/>
				<path id="&lt;Path&gt;" class="s9" d="m117.28 41.2c-0.21-0.14-0.46-0.09-0.56 0.11-0.13 0.21-0.08 0.46 0.13 0.6 0.87 0.57 1.66 1.38 2.31 2.35 0.59 0.94 1.05 2.09 1.31 3.32 0.04 0.21 0.29 0.34 0.5 0.29 0.22-0.04 0.39-0.25 0.35-0.47-0.28-1.36-0.8-2.54-1.46-3.6-0.72-1.09-1.61-1.96-2.58-2.6z"/>
				<path id="&lt;Path&gt;" class="s1" d="m109.71 41.26c3.53-0.73 7.19 2.37 8.13 6.87 0.93 4.5-1.19 8.76-4.72 9.49-3.57 0.75-7.22-2.3-8.16-6.81-0.94-4.5 1.18-8.8 4.75-9.55z"/>
				<path id="&lt;Path&gt;" class="s9" d="m110.52 45.13c1.87-0.39 3.76 1.26 4.26 3.64 0.49 2.38-0.6 4.6-2.47 4.99-1.87 0.39-3.79-1.21-4.29-3.59-0.5-2.37 0.63-4.65 2.5-5.04z"/>
				<path id="&lt;Path&gt;" class="s10" d="m111.79 47.22c0.89-0.19 1.81 0.59 2.05 1.74 0.23 1.11-0.3 2.19-1.19 2.38-0.89 0.18-1.81-0.6-2.04-1.71-0.24-1.14 0.29-2.23 1.18-2.41z"/>
				<path id="&lt;Path&gt;" class="s11" d="m110.52 45.13c0.12-0.02 0.26-0.01 0.39-0.03-1.61 0.6-2.54 2.7-2.08 4.91 0.46 2.21 2.15 3.72 3.86 3.63q-0.18 0.09-0.38 0.12c-1.87 0.39-3.79-1.21-4.29-3.59-0.5-2.37 0.63-4.65 2.5-5.04z"/>
				<path id="&lt;Path&gt;" class="s1" d="m110.63 40.59c0 0-4.55-1.63-6.73 7.07-2.22 8.67 2.81-0.58 2.81-0.58z"/>
				<path id="&lt;Path&gt;" class="s2" d="m109.33 40.5c-1.08 0.14-2.67 0.82-3.98 3.23 1.97 0.12 3.49-2.37 3.98-3.23z"/>
				<path id="&lt;Path&gt;" class="s6" d="m110.28 47.18l0.9-3.96c1.22-5.44-2.81-1.99-5.2 4.81z"/>
				<path id="&lt;Path&gt;" class="s7" d="m110.28 47.18l0.9-3.96c0.26-1.12 0.28-1.87 0.14-2.29-1.1 0.67-2.86 3.26-4.24 6.87z"/>
				<path id="&lt;Path&gt;" class="s12" d="m116.48 48.01c2.01 0.07 3.42 0.26 4.6 2.28l1.03 1.74c0.76 1.3-0.64 2.92-2.12 3.23l-35.31 7.36-1.65-7.9 26.05-5.43-0.34-1.62z"/>
				<path id="&lt;Path&gt;" class="s2" d="m70.95 36.75c-0.6 0.13-1 0.74-0.87 1.34 0.13 0.64 0.74 1 1.33 0.87l9.94-2.07c0.64-0.13 1.01-0.7 0.88-1.34-0.13-0.59-0.7-1-1.34-0.87z"/>
				<path id="&lt;Compound Path&gt;" fill-rule="evenodd" class="s7" d="m80.76 31.29c0.75 0.16 1.31 0.53 1.68 1.03q0.62 0.79 0.58 1.92-0.05 0.99-0.66 2.17c-0.73 1.4-2.04 2.78-3.53 3.89-1.5 1.11-3.23 1.96-4.8 2.28q-1.4 0.28-2.44 0.02c-0.7-0.16-1.26-0.53-1.67-1.02l-0.06-0.08q-0.57-0.75-0.48-1.85c0-0.62 0.24-1.38 0.66-2.17 0.73-1.4 2.03-2.78 3.53-3.89 1.51-1.07 3.23-1.96 4.8-2.29 0.89-0.18 1.74-0.18 2.39-0.01zm-1.92 2.27c-1.27 0.26-2.68 0.95-3.91 1.88-1.28 0.88-2.32 2.03-2.89 3.13-0.26 0.45-0.4 0.87-0.42 1.19q-0.01 0.26 0.09 0.43 0.11 0.16 0.4 0.22 0.56 0.15 1.46-0.04c1.23-0.25 2.67-1 3.91-1.87 1.22-0.92 2.31-2.08 2.88-3.18 0.26-0.45 0.39-0.88 0.42-1.19 0.01-0.18-0.03-0.35-0.09-0.43-0.11-0.11-0.22-0.17-0.45-0.21-0.33-0.11-0.8-0.06-1.4 0.07z"/>
				<path id="&lt;Path&gt;" class="s7" d="m77.11 36.09c-0.47-0.52-1.27-0.53-1.79-0.07-0.47 0.5-0.53 1.31-0.03 1.78l3.66 3.94c0.51 0.51 1.26 0.53 1.79 0.07 0.52-0.47 0.53-1.27 0.07-1.79z"/>
				<path id="&lt;Path&gt;" class="s6" d="m78.95 41.74c0.51 0.51 1.26 0.53 1.79 0.07 0.52-0.47 0.53-1.27 0.07-1.79-0.51-0.52-1.27-0.54-1.79-0.07-0.52 0.5-0.53 1.3-0.07 1.79z"/>
				<path id="&lt;Path&gt;" class="s1" d="m80.51 40.3c-0.33-0.33-0.87-0.35-1.2-0.01-0.34 0.29-0.36 0.82-0.02 1.15l13.46 14.4c0.34 0.33 0.87 0.35 1.2 0.02 0.33-0.34 0.36-0.83 0.02-1.21z"/>
				<path id="&lt;Path&gt;" class="s13" d="m95.99 50.95l-5.48 1.15c-0.55 0.11-1.04 0.75-1.06 1.28l-0.2 3.32c-0.01 0.18 0.04 0.39 0.16 0.55 0.15 0.1 0.33 0.1 0.46 0.08l4.63-0.97 0.25 1.19-4.63 0.97c-0.51 0.1-1.07 0-1.5-0.4-0.43-0.35-0.59-0.9-0.58-1.48l0.2-3.32c0.04-1.07 0.92-2.18 2.02-2.41l5.48-1.15z"/>
				<path id="&lt;Path&gt;" class="s6" d="m121.83 44.95c-0.02-0.09 2.14 1.15 0.55 1.57q-0.25-0.83-0.55-1.57z"/>
				<path id="&lt;Path&gt;" class="s1" d="m133.92 46.15c0.32 0.29 0.67 0.7 0.97 1.26l1.03 1.74c0.76 1.3-0.64 2.92-2.08 3.22-10.62 2.22-37.6 7.84-49.16 10.25l-1.09-5.22 48.52-10.12c0.68-0.14 1.34-0.59 1.81-1.13z"/>
				<path id="&lt;Path&gt;" class="s14" d="m98.95 59.65l-14.27 2.97-0.94-4.5q1.02 0.18 2.11 0.36c-0.44-0.44-0.84-0.85-1.24-1.3l2.89-0.6q6.16 2.17 11.45 3.07z"/>
				<path id="&lt;Path&gt;" class="s1" d="m53.9 50.02c2.33-0.49 4.7 1.5 5.31 4.43 0.61 2.93-0.76 5.7-3.1 6.19l-13.94 2.9c-0.53-2.54-1.56-7.52-2.21-10.62z"/>
				<path id="&lt;Path&gt;" class="s15" d="m39.96 52.92c2.29-0.48 4.66 1.51 5.27 4.45 0.61 2.93-0.76 5.7-3.06 6.17-2.29 0.48-4.66-1.51-5.27-4.44-0.61-2.93 0.76-5.7 3.06-6.18z"/>
				<path id="&lt;Path&gt;" class="s7" d="m72.69 65.12l-6.45 1.35-1.99-9.52 6.46-1.35z"/>
				<path id="&lt;Path&gt;" class="s7" d="m38.46 55.72c3.65-0.76 7.37 2.41 8.33 7 0.96 4.63-1.19 8.98-4.84 9.74l-5.82 1.21c-0.84-3.99-2.47-11.81-3.49-16.74z"/>
				<path id="&lt;Path&gt;" class="s1" d="m32.64 56.93c3.65-0.76 7.37 2.41 8.33 7 0.96 4.63-1.19 8.98-4.84 9.74-3.61 0.76-7.37-2.36-8.33-7-0.97-4.63 1.23-8.99 4.84-9.74z"/>
				<path id="&lt;Path&gt;" class="s9" d="m33.46 60.88c1.91-0.39 3.9 1.27 4.41 3.7 0.5 2.42-0.66 4.74-2.57 5.14-1.91 0.4-3.85-1.28-4.36-3.7-0.5-2.42 0.61-4.74 2.52-5.14z"/>
				<path id="&lt;Path&gt;" class="s11" d="m33.46 60.88c0.17-0.03 0.31-0.02 0.43-0.04-1.64 0.61-2.61 2.76-2.14 5.01 0.47 2.25 2.22 3.84 3.97 3.74q-0.17 0.09-0.42 0.13c-1.91 0.4-3.85-1.28-4.36-3.7-0.5-2.42 0.61-4.74 2.52-5.14z"/>
				<path id="&lt;Path&gt;" class="s1" d="m34.8 63.04c0.89-0.18 1.85 0.59 2.09 1.74 0.24 1.15-0.32 2.28-1.22 2.47-0.93 0.19-1.86-0.63-2.1-1.78-0.24-1.15 0.29-2.23 1.23-2.43z"/>
				<path id="&lt;Path&gt;" class="s6" d="m40 39.3l1.53-0.32c0.38-0.08 0.71-0.63 0.63-1.01l-0.28-1.36c-0.25-1.19 0.41-2.08 1.26-2.26l5.27-1.1c1.06-0.22 1.98 0.38 2.57 0.84l2.06 1.61c0.48 0.39 1.24 0.63 1.88 0.49l1.53-0.32c1.1-0.23 7.56 13.55 11.03 20.4l-17.08 3.56z"/>
				<path id="&lt;Path&gt;" class="s1" d="m39.83 38.49c-0.46 0.1-0.72 0.56-0.64 0.98 0.1 0.47 0.52 0.78 0.99 0.68l1.53-0.32c0.85-0.17 1.47-1.23 1.3-2.04l-0.28-1.36c-0.1-0.47 0.03-1.12 0.58-1.23l5.27-1.1c0.68-0.14 1.38 0.24 1.91 0.62l2.02 1.62c0.69 0.57 1.69 0.89 2.58 0.7l1.53-0.32c2.64-0.54 5.53 1.2 6.69 3.58l2.2 4.37c0.96 1.84 3.39 2.66 5.34 2.26 1.58-0.33 3.26 0.74 4 2.14l2.79 5.31c0.21 0.4 0.69 0.56 1.13 0.34 0.4-0.22 0.57-0.7 0.34-1.14l-2.79-5.31c-1.05-2.04-3.47-3.49-5.81-3-1.19 0.25-2.88-0.2-3.48-1.36l-2.2-4.37c-1.56-3.05-5.15-5.18-8.55-4.47l-1.53 0.32c-0.43 0.08-0.91-0.12-1.19-0.38l-2.06-1.61c-0.9-0.7-2.07-1.21-3.26-0.96l-5.27 1.1c-1.49 0.31-2.19 1.83-1.9 3.23l0.29 1.41z"/>
				<path id="&lt;Path&gt;" class="s8" d="m49.17 48.21c-3.1-6.18 5.47-7.61 8.63-1.8l5.77 10.68-8.92 1.86z"/>
				<path id="&lt;Path&gt;" class="s1" d="m67.5 50.42c-0.34 0.07-15.96 4.03-16.01 4-0.87-4.78-7.3-17.37-4.84-25.33 0.47-1.56 3.62-3.68 5.22-4.54l9.82 2.25c2.46 3.92 4.45 17.3 5.81 23.62z"/>
				<path id="&lt;Path&gt;" class="s6" d="m59.83 26.39c1.2 3.21 2.29 6.31 2.9 9.2 0.76 3.65 0.95 6.93 2.57 9.17l-0.89 0.63c-1.78-2.38-2-5.79-2.79-9.57-0.62-2.98-1.72-6.12-3.02-9.39z"/>
				<path id="&lt;Path&gt;" class="s1" d="m51 52.53c-0.7-2.34-1.96-5.58-3.03-9.04l17.46-3.64c0.7 3.36 3.43 6.25 3.93 8.85z"/>
				<path id="&lt;Path&gt;" class="s6" d="m52.76 22.68l-0.89 1.87c3.23 2.12 6.53 2.63 9.82 2.25l-1.2-2.59z"/>
				<path id="&lt;Path&gt;" class="s1" d="m48.68 45.61c-0.96-2.91-1.9-6.12-2.36-9.18l17.55-3.65c0.7 2.73 1.65 5.99 2.19 9.2z"/>
				<path id="&lt;Path&gt;" class="s2" d="m47.02 37.66c-0.27-0.21-0.48-0.39-0.57-0.63q-0.07-0.33-0.13-0.6l17.55-3.65c0.09 0.42 0.22 0.84 0.32 1.3z"/>
				<path id="&lt;Path&gt;" class="s15" d="m56.45 59.73c2.58-1.03 10.07-6.18 10.83-6.34 3.68-0.63 13.89 3.67 18.39 5.26l3.01-8.52c-6.51-2.28-16.26-6.77-22.94-5.6-3.68 0.64-10.07 5.92-14.12 7.56z"/>
				<path id="&lt;Path&gt;" class="s1" d="m93.63 46.88c0 0-4.55-1.63-6.78 7.04-2.17 8.7 2.81-0.58 2.81-0.58z"/>
				<path id="&lt;Path&gt;" class="s2" d="m92.28 46.76c-1.07 0.18-2.62 0.86-3.93 3.26 1.97 0.12 3.45-2.36 3.93-3.26z"/>
				<path id="&lt;Path&gt;" class="s6" d="m93.28 53.47l0.86-3.95c1.26-5.45-2.78-2.04-5.16 4.8z"/>
				<path id="&lt;Path&gt;" class="s7" d="m93.28 53.47l0.86-3.95c0.29-1.17 0.31-1.93 0.14-2.29-1.1 0.67-2.87 3.26-4.2 6.86z"/>
				<path id="&lt;Path&gt;" class="s6" d="m130.29 45.13c1.47 0.05 2.65 0.16 3.63 1.02-0.47 0.54-1.13 0.99-1.81 1.13l-48.52 10.12-0.56-2.68c13.13-2.74 26.22-5.47 39.35-8.2-0.02-0.49-0.26-1.01-0.55-1.57l0.76-0.16z"/>
				<path id="&lt;Path&gt;" class="s15" d="m65.33 54.46c1.03-0.61 1.74-1.03 1.95-1.07 3.68-0.63 13.89 3.67 18.39 5.26l1.61-4.6c-5.9-1.74-16.77-4.75-20.04-4.91-2.11-0.09-4.07 0.72-6.22 1.87 0.98 2.15 2.83 4.43 4.31 3.45z"/>
				<path id="&lt;Path&gt;" class="s1" d="m66.5 52.84c-2.63 0.55-5.12-0.75-5.56-2.87-0.46-2.17 1.31-4.35 3.94-4.9 2.59-0.54 5.08 0.76 5.53 2.92 0.44 2.13-1.32 4.31-3.91 4.85z"/>
				<path id="&lt;Path&gt;" class="s15" d="m50.4 59.83l-10.4-20.53c2.81-0.58 6.17 1.11 7.63 4.04l2.2 4.38c0.81 1.56 2.87 2.1 4.4 1.78 1.83-0.38 3.92 0.74 4.93 2.61l2.8 5.32z"/>
				<path id="&lt;Path&gt;" class="s1" d="m39.83 38.49c-0.46 0.1-0.72 0.56-0.64 0.98 0.1 0.47 0.52 0.78 0.99 0.68 2.68-0.56 5.53 1.2 6.73 3.57l2.2 4.37c0.91 1.85 3.35 2.67 5.3 2.26 1.61-0.33 3.26 0.74 3.99 2.14l2.79 5.32c0.22 0.39 0.74 0.55 1.14 0.34 0.4-0.22 0.56-0.7 0.34-1.14l-2.79-5.31c-1.05-2.05-3.48-3.49-5.82-3-1.19 0.24-2.87-0.2-3.47-1.36l-2.2-4.38c-1.52-3.05-5.16-5.17-8.56-4.47z"/>
				<path id="&lt;Path&gt;" class="s1" d="m42.14 57.43l9.35-1.94c2.42-0.51 2.86 1.79 5.07 1.33l5.39-1.12c1.49-0.31 2.48 0.81 3.24 2.12l3.17 5.41c0.71 1.31-0.68 2.93-2.12 3.24l-20.99 4.37c-0.77 0.16-1.52-0.04-2.09-0.41-0.67-0.48-0.86-1.37-0.7-2.11 0.4-1.68 0.42-3.5 0.08-5.16-0.24-1.15-0.66-2.3-1.28-3.37-0.71-1.27-0.22-2.13 0.88-2.36z"/>
				<path id="&lt;Path&gt;" class="s1" d="m67.53 62.69c-3.21 0.32-21.77 1.26-24.85 1.37l0.01 0.04c0.15 1.39 0.11 2.86-0.23 4.22-0.16 0.74 0.03 1.63 0.7 2.11 0.57 0.37 1.32 0.57 2.09 0.41l20.99-4.37c1.02-0.22 2.03-1.09 2.23-2.02q-0.08-0.06-0.1-0.07z"/>
				<path id="&lt;Path&gt;" class="s2" d="m67.47 61.77c-3.05 1.08-21.77 1.66-24.95 1.3l0.02 0.09q0.12 0.63 0.19 1.33c4.02 0.36 26.13-0.74 25.63-1.26-0.55-0.51-0.11-0.07-0.2-0.27z"/>
				<path id="&lt;Path&gt;" class="s2" d="m68.53 64.26c-0.15 1.01-1.19 1.98-2.29 2.21l-20.99 4.37c-0.77 0.16-1.52-0.04-2.09-0.41-0.26-0.21-0.49-0.47-0.6-0.76z"/>
				<path id="&lt;Path&gt;" class="s7" d="m65.61 58.57l2.75 4.66c0.41 0.71 0.14 1.57-0.43 2.22-1.7-1.33-2.95-3.33-3.61-5.41-0.2-0.54-0.15-1.17 0.57-1.32z"/>
				<path id="&lt;Path&gt;" class="s7" d="m75.16 48.47c3.57-0.75 7.19 2.36 8.13 6.86 0.94 4.5-1.19 8.76-4.72 9.5l-4.71 0.98c-0.82-3.91-2.4-11.52-3.41-16.36z"/>
				<path id="&lt;Path&gt;" class="s1" d="m70.45 49.45c3.57-0.75 7.23 2.35 8.17 6.85 0.94 4.51-1.19 8.76-4.76 9.51-3.53 0.73-7.18-2.32-8.12-6.82-0.94-4.51 1.18-8.81 4.71-9.54z"/>
				<path id="&lt;Path&gt;" class="s9" d="m71.25 53.32c1.87-0.39 3.81 1.24 4.31 3.62 0.49 2.38-0.64 4.61-2.51 5-1.87 0.39-3.75-1.21-4.25-3.59-0.5-2.38 0.58-4.64 2.45-5.03z"/>
				<path id="&lt;Path&gt;" class="s1" d="m72.57 55.39c0.9-0.19 1.81 0.6 2.05 1.75 0.23 1.1-0.29 2.19-1.19 2.37-0.89 0.19-1.81-0.6-2.04-1.7-0.24-1.15 0.29-2.23 1.18-2.42z"/>
				<path id="&lt;Path&gt;" class="s11" d="m71.25 53.32c0.17-0.04 0.31-0.02 0.44-0.05-1.65 0.61-2.54 2.7-2.08 4.91 0.46 2.21 2.11 3.73 3.86 3.63q-0.17 0.09-0.42 0.13c-1.87 0.39-3.75-1.21-4.25-3.59-0.5-2.38 0.58-4.64 2.45-5.03z"/>
				<path id="&lt;Path&gt;" class="s2" d="m42.14 57.43l9.35-1.94c2.42-0.51 2.86 1.79 5.07 1.33l5.39-1.12c1.11-0.23 1.94 0.35 2.6 1.19l-7.65 1.59c-2.85 0.59-3.71-1.62-5.07-1.34l-10.75 2.24c-0.39-1.02 0.08-1.74 1.06-1.95z"/>
				<path id="&lt;Path&gt;" class="s1" d="m90.39 53.45c2.05 0.06 3.43 0.26 4.6 2.28l1.03 1.73c0.76 1.31-0.64 2.93-2.12 3.24l-13.77 2.87c-0.68 0.14-0.72-0.91-0.46-1.59 0.77-2.02 0.91-4.36 0.47-6.44-0.2-0.97 0-1.9 1.07-2.13l1.48-0.31z"/>
				<path id="&lt;Path&gt;" class="s16" d="m96.19 58.49c-0.15 1.01-1.19 1.98-2.29 2.21l-13.77 2.87c-0.72 0.15-0.69-0.97-0.43-1.64z"/>
				<path id="&lt;Path&gt;" class="s2" d="m90.39 53.45c1.79 0.07 3.11 0.24 4.2 1.65-1.4 0.29-2.93 0.17-4.34 0.02l-7.43-0.36-2.72 0.57c-0.06-0.3-0.21-1.64 1.11-1.92l1.48-0.31z"/>
				<path id="&lt;Path&gt;" class="s6" d="m85.44 62.46c-0.44-0.21-0.36-1.12-0.17-1.69l50.86-10.6c-0.19 1.01-1.23 1.98-2.29 2.2z"/>
				<path id="&lt;Path&gt;" class="s2" d="m132.35 52.68c-0.2-0.31-0.38-0.54-0.65-0.79-0.98-0.86-2.23-1.13-3.46-0.87l-25.2 5.25c-1.83 0.38-3.28 1.7-4.09 3.38 6.55-1.37 26.9-5.61 33.4-6.97z"/>
				<path id="&lt;Path&gt;" class="s6" d="m93.03 29.76c5.54 5.05 9.29 10.52 13.97 15.93l-9.73 2.03c-5.33-4.48-10.88-8.38-17.19-10.12l-2.58-3.45c-1.28-1.69 0.66-3.64 2.19-3.96l8.84-1.84c1.83-0.39 3.53 0.55 4.5 1.41z"/>
				<path id="&lt;Path&gt;" class="s1" d="m114.53 45.23l3.38 2.22-23.75 4.95-0.46-2.21c-0.25-1.19 0.41-2.08 1.26-2.26l16.95-3.53c1.07-0.22 1.96 0.43 2.62 0.83z"/>
				<path id="&lt;Path&gt;" class="s1" d="m93.03 29.76c4.88 4.43 8.35 9.21 12.32 13.97l-7.48 1.56c-4.88-4.04-10.27-7.8-16.42-9.66l-2.04-2.73c0.14-0.2 0.53-0.46 0.74-0.5l12.83-2.68z"/>
				<path id="&lt;Path&gt;" class="s2" d="m79.69 30.19l8.84-1.84c4.2 3.78 7.78 7.99-8.84 1.84z"/>
				<path id="&lt;Path&gt;" class="s6" d="m96.19 58.49c-0.37 0.79-1.4 2.02-2.29 2.21l-13.77 2.87c-0.68 0.14-0.72-0.91-0.46-1.59 0.54-1.44 0.77-3.09 0.71-4.67 1.9 0.85 4.01 1.38 6.25 1.71-0.94-1.13-1.75-2.43-2.44-3.83 4.27 1.99 8.33 2.52 12 3.3z"/>
				<path id="&lt;Path&gt;" class="s1" d="m94.62 60.33c-0.28 0.15-0.42 0.31-0.72 0.37l-13.77 2.87c-0.68 0.14-0.72-0.91-0.46-1.59 0.37-0.96 0.61-2.39 0.7-3.43 3.07 1.09 6.08 1.71 9.13 1.91q-1.2-1.27-2.07-2.49c2.13 0.84 4.84 1.74 7.19 2.36z"/>
				<path id="&lt;Path&gt;" class="s6" d="m66.66 37.65c-4.79 1.7-9.52 2.42-12.41 1.52-2.34-0.8-1.88-3.51-2.45-8.8-0.17-1.65-1.39-2.81-2.76-2.79-1.33 0.01-2.38 1.11-2.63 2.45-1.65 8.28 0.94 13.24 5.74 14.81 4.23 1.38 10.56 0.02 16.36-2.13-0.12-1.65-0.66-3.36-1.85-5.06z"/>
				<path id="&lt;Path&gt;" class="s2" d="m58.79 40.93c-2.96 0.3-5.74 0.13-6.76-0.94-1.8-1.8-2.24-6.68-2.21-9.12 0-0.62-0.51-1.13-1.13-1.14-0.62 0-1.09 0.5-1.14 1.13-0.01 3.15 0.56 8.39 2.86 10.75 1.63 1.61 5.05 1.87 8.64 1.44-0.16-0.77-0.23-1.51-0.26-2.12z"/>
				<path id="&lt;Path&gt;" class="s2" d="m67.24 38.54c-1.33 0.86-3.74 1.63-6.26 2.06 0.03 0.57 0.09 1.27 0.26 2.12 2.6-0.5 5.11-1.24 6.88-2.1-0.18-0.67-0.5-1.35-0.88-2.08z"/>
				<path id="&lt;Path&gt;" class="s1" d="m70.68 34.81c-0.83 0.71-1.5 1.74-2.52 2.17l-1.5 0.67 1.27 3.55 1.63-0.48c0.68-0.14 0.63-1.02 2.12-1.33 0.15 0.33 1.2-0.16 1.42-0.6l1.17-2.29c0.32-0.59-3.07-2.15-3.59-1.69z"/>
				<path id="&lt;Path&gt;" class="s6" d="m70.34 35.11c0 0-0.26 2.36-0.42 3.28-0.17 0.92-1.1 0.67-1.13-0.74-0.03-1.19 0.05-2.72 1.55-2.54z"/>
				<path id="&lt;Path&gt;" class="s2" d="m67.79 37.15c-0.51 1.56 1.22 4.13 0.21 4.38-1.06 0.23-1.82-3.43-1.34-3.88z"/>
				<path id="&lt;Path&gt;" class="s6" d="m58.68 31.51c0.3-0.07 0.61 0.14 0.67 0.43 0.06 0.3-0.14 0.61-0.44 0.67l-3.99 0.83c-0.34 0.07-0.61-0.14-0.67-0.43-0.06-0.3 0.1-0.6 0.44-0.67z"/>
				<path id="&lt;Path&gt;" class="s1" d="m65.89 27.57l-15.95-5.24c-4.37-15.05 15.07-17.9 17.72-4.35 0.8 4.04-0.76 8.71-1.77 9.59z"/>
				<path id="&lt;Path&gt;" class="s6" d="m50.17 17.23c-0.04 0.27 0.2 0.58 0.52 0.6 0.32 0.03 0.58-0.21 0.6-0.52 0.16-1.99 0.99-3.76 2.65-4.94 0.28-0.15 0.34-0.52 0.15-0.79-0.18-0.23-0.51-0.29-0.78-0.1-1.98 1.34-2.92 3.4-3.14 5.75z"/>
				<path id="&lt;Path&gt;" class="s6" d="m49.37 19.17c1.64-0.25 4.71-0.8 10.29-2.14 3.79-0.93 6.41 0.35 8.19 2.28 0.27 3.67-1.07 7.45-1.96 8.26l-15.95-5.24c-0.32-1.13-0.5-2.2-0.57-3.16z"/>
				<path id="&lt;Path&gt;" class="s6" d="m66.3 14.22c0.62 1.07 1.1 2.3 1.36 3.76 0.48 2.33 0.13 4.89-0.41 6.77l-10.04-3.31c-3-0.97-4.32-7.52-0.8-7.46z"/>
				<path id="&lt;Path&gt;" class="s1" d="m68.25 23.79l-10.66-3.49c-1.81-0.6-2.93-5.11-1.19-5.08l10.86 0.22c1.36 2.47 1.67 5.68 0.99 8.35z"/>
				<path id="&lt;Path&gt;" class="s6" d="m66.94 16.44c-0.1-0.25-0.39-0.36-0.68-0.26-0.23 0.14-0.35 0.43-0.26 0.68 0.74 1.62 1 3.51 0.8 5.29-0.03 0.27 0.15 0.5 0.43 0.57 0.27 0.03 0.53-0.2 0.56-0.47 0.27-1.92-0.04-4.03-0.85-5.81z"/>
				<path id="&lt;Path&gt;" class="s1" d="m49.75 21.18c-0.29-0.12-0.57 0.03-0.65 0.31-0.07 0.28 0.07 0.56 0.31 0.64l16.85 5.54c0.24 0.08 0.57-0.03 0.65-0.32 0.07-0.28-0.08-0.56-0.36-0.63z"/>
				<path id="&lt;Path&gt;" class="s2" d="m49.33 43.21c1.68-1.1 3.71-0.51 4.49 1.99-0.61 0.26-3.6 0.35-4.49-1.99z"/>
				<path id="&lt;Path&gt;" class="s6" d="m66.23 51.53c-1.92 0.39-3.68-0.43-3.98-1.84-0.3-1.44 0.99-2.91 2.9-3.3 1.87-0.39 3.64 0.43 3.94 1.88 0.3 1.4-0.99 2.87-2.86 3.26z"/>
				<path id="&lt;Path&gt;" class="s17" d="m102.91 40.78l-3.23 0.67-2.89 0.6c-1.1 0.23-2.78-0.39-3.73-1.35l-3.67-3.76c-0.92-1-0.77-1.96 0.34-2.19l6.88-1.44c2.24 2.42 4.26 4.92 6.3 7.47z"/>
				<path id="&lt;Compound Path&gt;" class="s1" d="m98.02 39.63l-2.52-3.02-0.73 0.15-0.55-0.83 1.88-0.39 3.2 3.82z"/>
			</g>
		</g>
	</g>
</svg>